<?xml version="1.0" encoding="UTF-8" standalone="no"?>
<svg
   xmlns:dc="http://purl.org/dc/elements/1.1/"
   xmlns:cc="http://creativecommons.org/ns#"
   xmlns:rdf="http://www.w3.org/1999/02/22-rdf-syntax-ns#"
   xmlns:svg="http://www.w3.org/2000/svg"
   xmlns="http://www.w3.org/2000/svg"
   version="1.1"
   id="Negativo"
   x="0px"
   y="0px"
   viewBox="0 0 146.8 183.5"
   xml:space="preserve"
   width="16"
   height="20"><metadata
   id="metadata69"><rdf:RDF><cc:Work
       rdf:about=""><dc:format>image/svg+xml</dc:format><dc:type
         rdf:resource="http://purl.org/dc/dcmitype/StillImage" /><dc:title>decidim-logo</dc:title></cc:Work></rdf:RDF></metadata><defs
   id="defs67" />
<style
   type="text/css"
   id="style2">
	.st0{fill:#D9E7E5;}
	.st1{fill:#ED6A5A;}
	.st2{fill:#31536E;}
	.st3{fill:#A0C3BF;}
</style>
<title
   id="title4">decidim-logo</title>
















<rect
   ry="21.771185"
   y="-1.8661016"
   x="0"
   height="183.5"
   width="146.8"
   id="rect22"
   style="opacity:1;fill:#ffffff;fill-opacity:1;fill-rule:nonzero;stroke:none;stroke-width:325.09841919;stroke-linejoin:bevel;stroke-miterlimit:4;stroke-dasharray:none;stroke-opacity:1" /><path
   class="st1"
   d="m 93.718305,165.15 c 19.899835,-0.2 35.999695,-16.3 36.199695,-36.1 v -0.7 c -0.2,-19.9 -16.29986,-36 -36.199695,-36.2 v 0 -0.7 0 C 113.61814,91.25 129.71799,75.15 129.918,55.25 v -0.7 c -0.30001,-19.9 -16.29986,-36 -36.199695,-36.2 h -73.79938 v 73 0 0.7 0 73 z m -0.7,-73 v 0 -0.7 0 z"
   id="path38"
   style="fill:#ed6a5a;stroke-width:0.99999577" />
<path
   class="st2"
   d="m 92.918305,92.15 c -19.899829,0.2 -35.999693,16.3 -36.199691,36.2 19.999831,-0.2 35.999691,-16.3 36.199691,-36.2 z"
   id="path40"
   style="fill:#31536e;stroke-width:0.99999577" />
<path
   class="st2"
   d="m 56.818613,129.04999 c 0.199998,19.9 16.299862,35.9 36.199692,36.1 -0.3,-19.8 -16.29986,-35.9 -36.199692,-36.1 z"
   id="path42"
   style="fill:#31536e;stroke-width:0.99999577" />
<path
   class="st2"
   d="m 56.118619,128.25 c -0.199998,-19.8 -16.299862,-35.9 -36.199694,-36.1 0.199998,19.9 16.299862,35.9 36.199694,36.1 z"
   id="path44"
   style="fill:#31536e;stroke-width:0.99999577" />
<path
   class="st2"
   d="m 56.118619,129.04999 c -19.899832,0.2 -35.999696,16.3 -36.199694,36.1 19.899832,-0.2 35.999696,-16.2 36.199694,-36.1 z"
   id="path46"
   style="fill:#31536e;stroke-width:0.99999577" />
<path
   class="st2"
   d="m 56.118619,54.55 c -0.199998,-19.9 -16.299862,-36 -36.199694,-36.2 0.199998,19.9 16.299862,36 36.199694,36.2 z"
   id="path48"
   style="fill:#31536e;stroke-width:0.99999577" />
<path
   class="st2"
   d="m 56.118619,55.25 c -19.899832,0.2 -35.999696,16.3 -36.199694,36.2 19.899832,-0.2 35.999696,-16.3 36.199694,-36.2 z"
   id="path50"
   style="fill:#31536e;stroke-width:0.99999577" />
<path
   class="st2"
   d="m 92.918305,18.35 c -19.899829,0.2 -35.999693,16.3 -36.099692,36.2 19.899832,-0.2 35.999692,-16.3 36.099692,-36.2 z"
   id="path52"
   style="fill:#31536e;stroke-width:0.99999577" />
<path
   class="st2"
   d="m 56.818613,55.25 c 0.199998,19.9 16.299862,35.9 36.099692,36.2 -0.1,-19.9 -16.19986,-36 -36.099692,-36.2 z"
   id="path54"
   style="fill:#31536e;stroke-width:0.99999577" />
<path
   class="st3"
   d="m 19.918925,165.15 c 0.199998,-19.9 16.299862,-36 36.199694,-36.1 v -0.7 c -19.899832,-0.3 -35.999696,-16.3 -36.199694,-36.2 z"
   id="path56"
   style="fill:#a0c3bf;stroke-width:0.99999577" />
<path
   class="st3"
   d="m 129.818,128.25 c -19.89983,-0.2 -35.999705,-16.3 -36.199695,-36.2 h -0.7 c -0.2,19.9 -16.299859,36 -36.199691,36.2 v 0.7 c 19.899832,0.2 35.999691,16.3 36.199691,36.1 h 0.8 c 0.19999,-19.9 16.299865,-36 36.199695,-36.1 v -0.7 z"
   id="path58"
   style="fill:#a0c3bf;stroke-width:0.99999577" />
<path
   class="st3"
   d="m 19.918925,91.45 c 0.199998,-19.9 16.299862,-36 36.199694,-36.2 v -0.7 C 36.218787,54.35 20.118923,38.25 19.918925,18.35 Z"
   id="path60"
   style="fill:#a0c3bf;stroke-width:0.99999577" />
<path
   class="st3"
   d="M 129.818,54.55 C 110.01817,54.35 93.918295,38.25 93.718305,18.35 h -0.8 c -0.2,19.9 -16.299859,36 -36.099692,36.2 v 0.7 c 19.899832,0.2 35.999692,16.3 36.199692,36.1 h 0.7 c 0.19999,-19.9 16.299865,-36 36.199695,-36.2 v -0.6 z"
   id="path62"
   style="fill:#a0c3bf;stroke-width:0.99999577" />
</svg>